<svg xmlns="http://www.w3.org/2000/svg" width="128" height="72" fill="none" viewBox="0 0 128 72"><g filter="url(#a)"><circle cx="36" cy="35" r="19.5" fill="#fff" fill-opacity=".1" transform="rotate(-90 36 35)"/><circle cx="36" cy="35" r="19.5" stroke="url(#b)" transform="rotate(-90 36 35)"/><circle cx="36" cy="35" r="19.5" stroke="url(#c)" transform="rotate(-90 36 35)"/><circle cx="36" cy="35" r="19.5" stroke="url(#d)" transform="rotate(-90 36 35)"/><g clip-path="url(#e)"><path fill="#ededed" d="M38.583 43.351a1 1 0 0 0 1.48 0l.327-.358a1 1 0 0 0 0-1.345l-5.426-5.976a1 1 0 0 1 0-1.344l5.426-5.976a1 1 0 0 0 0-1.344l-.326-.36a1 1 0 0 0-1.48 0l-5.907 6.506-1.067 1.174a1 1 0 0 0 0 1.344l1.067 1.174z"/></g></g><g filter="url(#f)"><circle cx="92" cy="35" r="19.5" fill="#fff" fill-opacity=".1" transform="rotate(90 92 35)"/><circle cx="92" cy="35" r="19.5" stroke="url(#g)" transform="rotate(90 92 35)"/><circle cx="92" cy="35" r="19.5" stroke="url(#h)" transform="rotate(90 92 35)"/><circle cx="92" cy="35" r="19.5" stroke="url(#i)" transform="rotate(90 92 35)"/><g clip-path="url(#j)"><path fill="#ededed" d="M89.417 26.649a1 1 0 0 0-1.48 0l-.327.358a1 1 0 0 0 0 1.345l5.427 5.976a1 1 0 0 1 0 1.344l-5.427 5.976a1 1 0 0 0 0 1.344l.326.36a1 1 0 0 0 1.48 0l5.907-6.506 1.067-1.174a1 1 0 0 0 0-1.344l-1.067-1.174z"/></g></g><defs><radialGradient id="b" cx="0" cy="0" r="1" gradientTransform="rotate(170.896 31.06 17.626)scale(66.1418 27.0805)" gradientUnits="userSpaceOnUse"><stop stop-color="#fff"/><stop offset="1" stop-color="#fff" stop-opacity="0"/></radialGradient><radialGradient id="c" cx="0" cy="0" r="1" gradientTransform="rotate(44.196 16.377 11.167)scale(46.1482 31.7792)" gradientUnits="userSpaceOnUse"><stop stop-color="#fff"/><stop offset="1" stop-color="#fff" stop-opacity="0"/></radialGradient><radialGradient id="d" cx="0" cy="0" r="1" gradientTransform="rotate(-8.722 452.561 34.84)scale(49.5858 20.2407)" gradientUnits="userSpaceOnUse"><stop stop-color="#fff"/><stop offset="1" stop-color="#fff" stop-opacity="0"/></radialGradient><radialGradient id="g" cx="0" cy="0" r="1" gradientTransform="rotate(170.896 59.06 19.856)scale(66.1418 27.0805)" gradientUnits="userSpaceOnUse"><stop stop-color="#fff"/><stop offset="1" stop-color="#fff" stop-opacity="0"/></radialGradient><radialGradient id="h" cx="0" cy="0" r="1" gradientTransform="rotate(44.196 44.377 80.13)scale(46.1482 31.7792)" gradientUnits="userSpaceOnUse"><stop stop-color="#fff"/><stop offset="1" stop-color="#fff" stop-opacity="0"/></radialGradient><radialGradient id="i" cx="0" cy="0" r="1" gradientTransform="matrix(49.01238 -7.5192 3.0693 20.00663 55.95 69.03)" gradientUnits="userSpaceOnUse"><stop stop-color="#fff"/><stop offset="1" stop-color="#fff" stop-opacity="0"/></radialGradient><clipPath id="e"><path fill="#fff" d="M26 45V25h20v20z"/></clipPath><clipPath id="j"><path fill="#fff" d="M102 25v20H82V25z"/></clipPath><filter id="a" width="72" height="72" x="0" y="0" color-interpolation-filters="sRGB" filterUnits="userSpaceOnUse"><feFlood flood-opacity="0" result="BackgroundImageFix"/><feColorMatrix in="SourceAlpha" result="hardAlpha" values="0 0 0 0 0 0 0 0 0 0 0 0 0 0 0 0 0 0 127 0"/><feOffset dy="1"/><feGaussianBlur stdDeviation="8"/><feColorMatrix values="0 0 0 0 0 0 0 0 0 0 0 0 0 0 0 0 0 0 0.1 0"/><feBlend in2="BackgroundImageFix" result="effect1_dropShadow_2001_76"/><feBlend in="SourceGraphic" in2="effect1_dropShadow_2001_76" result="shape"/></filter><filter id="f" width="72" height="72" x="56" y="0" color-interpolation-filters="sRGB" filterUnits="userSpaceOnUse"><feFlood flood-opacity="0" result="BackgroundImageFix"/><feColorMatrix in="SourceAlpha" result="hardAlpha" values="0 0 0 0 0 0 0 0 0 0 0 0 0 0 0 0 0 0 127 0"/><feOffset dy="1"/><feGaussianBlur stdDeviation="8"/><feColorMatrix values="0 0 0 0 0 0 0 0 0 0 0 0 0 0 0 0 0 0 0.1 0"/><feBlend in2="BackgroundImageFix" result="effect1_dropShadow_2001_76"/><feBlend in="SourceGraphic" in2="effect1_dropShadow_2001_76" result="shape"/></filter></defs></svg>