<svg width="446" height="238" viewBox="0 0 446 238" fill="none" xmlns="http://www.w3.org/2000/svg">
<path d="M408.536 111.905V19.7698H394.33V1.67847H445.18V19.7698H430.813V111.905H408.536Z" fill="white"/>
<path d="M365.041 113.397C359.014 113.397 353.848 112.464 349.543 110.599C345.239 108.734 341.956 105.439 339.696 100.714C337.544 95.9895 336.468 89.2131 336.468 80.385V73.6707C340.342 73.6707 344.216 73.6707 348.091 73.6707C352.072 73.6707 356.001 73.6707 359.875 73.6707V82.6231C359.875 86.6019 360.09 89.6482 360.521 91.762C360.951 93.7514 361.543 95.1191 362.296 95.8652C363.157 96.6112 364.18 96.9842 365.363 96.9842C367.193 96.9842 368.538 96.176 369.399 94.5596C370.368 92.8189 370.852 89.4617 370.852 84.4882C370.852 80.1363 370.26 76.9657 369.076 74.9763C368 72.8625 366.171 71.1218 363.588 69.754C361.005 68.3863 357.561 66.7077 353.256 64.7183C349.382 62.6046 346.261 60.1799 343.893 57.4445C341.526 54.709 339.804 51.2897 338.728 47.1866C337.759 43.0834 337.275 38.2342 337.275 32.6389C337.275 25.0542 338.136 18.9617 339.858 14.3611C341.58 9.76059 344.485 6.46561 348.575 4.47618C352.664 2.36242 358.314 1.30554 365.525 1.30554C374.672 1.30554 381.614 3.54364 386.349 8.01984C391.084 12.3717 393.452 18.9616 393.452 27.7897V41.4048C389.793 41.4048 386.08 41.4048 382.313 41.4048C378.654 41.4048 374.942 41.4048 371.175 41.4048V35.623C371.175 30.4008 370.852 26.795 370.206 24.8056C369.561 22.8162 368.054 21.8214 365.686 21.8214C363.642 21.8214 362.242 22.6296 361.489 24.246C360.736 25.7381 360.359 28.2249 360.359 31.7064C360.359 35.6852 361.005 38.7315 362.296 40.8453C363.695 42.8347 365.471 44.3889 367.623 45.508C369.776 46.5027 372.036 47.4974 374.403 48.4921C379.139 50.6059 382.959 52.7818 385.865 55.0199C388.878 57.1337 391.084 60.1178 392.483 63.9723C393.882 67.8268 394.582 73.3599 394.582 80.5715C394.582 88.7779 393.398 95.3056 391.031 100.155C388.663 104.88 385.219 108.299 380.699 110.413C376.287 112.402 371.067 113.397 365.041 113.397Z" fill="white"/>
<path d="M274.42 111.905L289.595 1.67847H322.365L337.216 111.905H312.195L310.096 93.8135H300.41L298.635 111.905H274.42ZM300.572 81.1309H310.096L305.415 23.1269L300.572 81.1309Z" fill="white"/>
<path d="M246.9 114.143C241.304 114.143 236.407 113.397 232.21 111.905C228.013 110.288 224.677 107.118 222.201 102.393C219.834 97.6681 218.65 90.5808 218.65 81.131V24.9921C218.65 18.6508 219.834 13.6773 222.201 10.0714C224.677 6.46561 228.013 3.91667 232.21 2.42461C236.515 0.808202 241.411 0 246.9 0C252.604 0 257.5 0.808202 261.59 2.42461C265.679 3.91667 268.8 6.46561 270.953 10.0714C273.213 13.6773 274.343 18.6508 274.343 24.9921V49.4246H251.904V23.873C251.904 21.6349 251.689 19.9564 251.258 18.8373C250.828 17.7183 250.236 16.9722 249.483 16.5992C248.837 16.1019 247.976 15.8532 246.9 15.8532C245.931 15.8532 245.07 16.1019 244.317 16.5992C243.564 16.9722 242.972 17.7183 242.541 18.8373C242.111 19.9564 241.896 21.6349 241.896 23.873V91.016C241.896 93.1297 242.111 94.8083 242.541 96.0517C242.972 97.2951 243.564 98.1033 244.317 98.4763C245.07 98.8493 245.931 99.0358 246.9 99.0358C247.976 99.0358 248.837 98.8493 249.483 98.4763C250.236 98.1033 250.828 97.2951 251.258 96.0517C251.689 94.8083 251.904 93.1297 251.904 91.016V67.3294H274.343V80.9445C274.343 90.5186 273.213 97.6681 270.953 102.393C268.8 107.118 265.679 110.288 261.59 111.905C257.5 113.397 252.604 114.143 246.9 114.143Z" fill="white"/>
<path d="M171.02 111.905V1.67847H216.219V19.7698H194.427V45.1349H213.475V65.4642H194.427V94.1865H216.219V111.905H171.02Z" fill="white"/>
<path d="M107.76 111.905V1.67847H144.727C151.399 1.67847 156.35 3.41921 159.578 6.90069C162.807 10.2578 164.421 14.734 164.421 20.3293V37.488C164.421 42.9589 163.183 47.8081 160.708 52.0357C158.341 56.2632 154.305 58.6878 148.601 59.3095V59.6825C152.26 60.4285 154.843 61.8584 156.35 63.9722C157.856 65.9616 159.148 69.2566 160.224 73.8571L168.941 111.905H144.081L137.785 75.5357C137.247 72.8002 136.709 70.6243 136.171 69.0079C135.633 67.2672 134.88 66.3968 133.911 66.3968H131.167V111.905H107.76ZM131.167 48.3055H136.171C138.324 48.3055 139.884 47.4973 140.853 45.8809C141.929 44.2645 142.467 41.5912 142.467 37.861V25.1785C142.467 21.4483 142.036 18.8994 141.175 17.5317C140.314 16.1639 138.915 15.4801 136.978 15.4801H131.167V48.3055Z" fill="white"/>
<path d="M74.7615 114.143C69.2729 114.143 64.4301 113.397 60.2329 111.905C56.1434 110.288 52.9148 107.118 50.5472 102.393C48.2872 97.6681 47.1572 90.5808 47.1572 81.131V24.9921C47.1572 18.6508 48.2872 13.6773 50.5472 10.0714C52.9148 6.46561 56.1434 3.91667 60.2329 2.42461C64.4301 0.808202 69.2729 0 74.7615 0C80.25 0 85.0929 0.808202 89.29 2.42461C93.4871 3.91667 96.7695 6.46561 99.1371 10.0714C101.612 13.6773 102.85 18.6508 102.85 24.9921V80.9445C102.85 90.5186 101.612 97.6681 99.1371 102.393C96.7695 107.118 93.4871 110.288 89.29 111.905C85.0929 113.397 80.25 114.143 74.7615 114.143ZM74.7615 99.0358C75.8377 99.0358 76.8062 98.7871 77.6672 98.2898C78.6357 97.7924 79.3353 96.9842 79.7657 95.8652C80.1962 94.6218 80.4114 93.0054 80.4114 91.016V23.873C80.4114 22.008 80.1962 20.4537 79.7657 19.2103C79.3353 17.9669 78.6357 17.0966 77.6672 16.5992C76.8062 16.1019 75.8377 15.8532 74.7615 15.8532C73.6853 15.8532 72.7167 16.1019 71.8558 16.5992C70.9948 17.0966 70.2953 17.9669 69.7572 19.2103C69.3267 20.4537 69.1115 22.008 69.1115 23.873V91.016C69.1115 93.0054 69.3267 94.6218 69.7572 95.8652C70.2953 96.9842 70.9948 97.7924 71.8558 98.2898C72.7167 98.7871 73.6853 99.0358 74.7615 99.0358Z" fill="white"/>
<path d="M0 111.905V1.67847H45.1999V19.7698H23.4071V45.1349H42.4556V65.4642H23.4071V111.905H0Z" fill="white"/>
<path d="M275.626 234.862V124.635H312.593C319.265 124.635 324.216 126.376 327.444 129.858C330.673 133.215 332.287 137.691 332.287 143.286V160.445C332.287 165.916 331.05 170.765 328.574 174.993C326.207 179.22 322.171 181.645 316.467 182.267V182.64C320.126 183.386 322.709 184.815 324.216 186.929C325.723 188.919 327.014 192.214 328.09 196.814L336.807 234.862H311.947L305.652 198.493C305.114 195.757 304.575 193.581 304.037 191.965C303.499 190.224 302.746 189.354 301.777 189.354H299.033V234.862H275.626ZM299.033 171.263H304.037C306.19 171.263 307.75 170.454 308.719 168.838C309.795 167.222 310.333 164.548 310.333 160.818V148.136C310.333 144.405 309.903 141.856 309.042 140.489C308.181 139.121 306.782 138.437 304.845 138.437H299.033V171.263Z" fill="#FF267E"/>
<path d="M227.027 234.862V124.635H272.227V142.727H250.434V168.092H269.483V188.421H250.434V217.144H272.227V234.862H227.027Z" fill="#FF267E"/>
<path d="M188.602 234.862V142.727H174.396V124.635H225.246V142.727H210.879V234.862H188.602Z" fill="#FF267E"/>
<path d="M145.107 236.354C139.081 236.354 133.915 235.421 129.61 233.556C125.306 231.691 122.023 228.396 119.763 223.671C117.611 218.947 116.535 212.17 116.535 203.342V196.628C120.409 196.628 124.283 196.628 128.158 196.628C132.139 196.628 136.067 196.628 139.942 196.628V205.58C139.942 209.559 140.157 212.605 140.587 214.719C141.018 216.708 141.61 218.076 142.363 218.822C143.224 219.568 144.247 219.941 145.43 219.941C147.26 219.941 148.605 219.133 149.466 217.517C150.435 215.776 150.919 212.419 150.919 207.445C150.919 203.093 150.327 199.923 149.143 197.933C148.067 195.82 146.237 194.079 143.655 192.711C141.072 191.343 137.628 189.665 133.323 187.675C129.449 185.562 126.328 183.137 123.96 180.402C121.593 177.666 119.871 174.247 118.795 170.144C117.826 166.04 117.342 161.191 117.342 155.596C117.342 148.011 118.203 141.919 119.925 137.318C121.647 132.718 124.552 129.423 128.642 127.433C132.731 125.319 138.381 124.263 145.592 124.263C154.739 124.263 161.681 126.501 166.416 130.977C171.151 135.329 173.519 141.919 173.519 150.747V164.362C169.86 164.362 166.147 164.362 162.38 164.362C158.721 164.362 155.008 164.362 151.242 164.362V158.58C151.242 153.358 150.919 149.752 150.273 147.763C149.627 145.773 148.121 144.778 145.753 144.778C143.708 144.778 142.309 145.587 141.556 147.203C140.803 148.695 140.426 151.182 140.426 154.663C140.426 158.642 141.072 161.689 142.363 163.802C143.762 165.792 145.538 167.346 147.69 168.465C149.843 169.46 152.103 170.454 154.47 171.449C159.206 173.563 163.026 175.739 165.932 177.977C168.945 180.091 171.151 183.075 172.55 186.929C173.949 190.784 174.649 196.317 174.649 203.529C174.649 211.735 173.465 218.263 171.097 223.112C168.73 227.837 165.286 231.256 160.766 233.37C156.354 235.359 151.134 236.354 145.107 236.354Z" fill="#FF267E"/>
<path d="M85.7966 237.1C80.3081 237.1 75.4652 236.354 71.2681 234.862C67.1786 233.245 63.95 230.075 61.5824 225.35C59.3224 220.625 58.1924 213.538 58.1924 204.088V147.949C58.1924 141.608 59.3224 136.634 61.5824 133.028C63.95 129.423 67.1786 126.874 71.2681 125.382C75.4652 123.765 80.3081 122.957 85.7966 122.957C91.2852 122.957 96.128 123.765 100.325 125.382C104.522 126.874 107.805 129.423 110.172 133.028C112.648 136.634 113.885 141.608 113.885 147.949V203.902C113.885 213.476 112.648 220.625 110.172 225.35C107.805 230.075 104.522 233.245 100.325 234.862C96.128 236.354 91.2852 237.1 85.7966 237.1ZM85.7966 221.993C86.8728 221.993 87.8414 221.744 88.7023 221.247C89.6709 220.749 90.3704 219.941 90.8009 218.822C91.2314 217.579 91.4466 215.962 91.4466 213.973V146.83C91.4466 144.965 91.2314 143.411 90.8009 142.167C90.3704 140.924 89.6709 140.054 88.7023 139.556C87.8414 139.059 86.8728 138.81 85.7966 138.81C84.7204 138.81 83.7519 139.059 82.8909 139.556C82.03 140.054 81.3304 140.924 80.7923 142.167C80.3619 143.411 80.1466 144.965 80.1466 146.83V213.973C80.1466 215.962 80.3619 217.579 80.7923 218.822C81.3304 219.941 82.03 220.749 82.8909 221.247C83.7519 221.744 84.7204 221.993 85.7966 221.993Z" fill="#FF267E"/>
<path d="M0 234.862V124.635H35.8371C42.5094 124.635 47.4599 126.376 50.6885 129.858C53.917 133.215 55.5313 137.691 55.5313 143.286V162.124C55.5313 167.346 54.9932 172.257 53.917 176.858C52.8409 181.334 50.9037 184.94 48.1056 187.675C45.4152 190.411 41.4871 191.778 36.3214 191.778H23.4071V234.862H0ZM23.4071 177.79H27.9271C29.7566 177.79 31.1018 176.423 31.9628 173.687C32.8237 170.952 33.2542 166.165 33.2542 159.326V154.85C33.2542 148.882 32.9314 144.654 32.2857 142.167C31.6399 139.68 30.4561 138.437 28.7342 138.437H23.4071V177.79Z" fill="#FF267E"/>
</svg>
