<svg width="468" height="233" viewBox="0 0 468 233" fill="none" xmlns="http://www.w3.org/2000/svg">
<path d="M255.334 110.14L269.434 0H299.884L313.684 110.14H290.434L288.484 92.0631H279.484L277.834 110.14H255.334ZM279.634 79.3904H288.484L284.134 21.4317L279.634 79.3904Z" fill="white"/>
<path d="M168.194 110.14V0H189.944V92.0631H199.544V0H221.144V92.0631H230.894V0H252.494V110.14H168.194Z" fill="white"/>
<path d="M140.433 110.14V0H161.283V110.14H140.433Z" fill="white"/>
<path d="M87.2051 116.29V96.3494H81.5051C74.4051 96.3494 68.9051 94.6721 65.0051 91.3176C61.2051 87.8388 59.3051 81.6268 59.3051 72.6814V35.4089C59.3051 29.321 60.8051 24.5377 63.8051 21.059C66.9051 17.456 71.805 15.6544 78.5051 15.6544H87.2051V0H107.605V15.6544H116.305C123.005 15.6544 127.855 17.456 130.855 21.059C133.955 24.5377 135.505 29.3832 135.505 35.5952V72.6814C135.505 81.751 133.555 87.9631 129.655 91.3176C125.755 94.6721 120.305 96.3494 113.305 96.3494H107.605V116.29H87.2051ZM84.9551 83.304H87.2051C87.2051 74.3586 87.2051 65.4753 87.2051 56.6542C87.2051 47.7088 87.2051 38.8255 87.2051 30.0044H84.9551C83.3551 30.0044 82.1551 30.6256 81.3551 31.868C80.5551 33.1104 80.1551 35.2225 80.1551 38.2043V75.1041C80.1551 78.0859 80.5551 80.198 81.3551 81.4404C82.1551 82.6828 83.3551 83.304 84.9551 83.304ZM107.605 83.304H109.855C111.355 83.304 112.555 82.7449 113.455 81.6268C114.355 80.3843 114.805 78.148 114.805 74.9177V38.3907C114.805 35.1604 114.355 32.9862 113.455 31.868C112.555 30.6256 111.355 30.0044 109.855 30.0044H107.605C107.605 38.8255 107.605 47.7088 107.605 56.6542C107.605 65.4753 107.605 74.3586 107.605 83.304Z" fill="white"/>
<path d="M0 110.14L14.1 0H44.55L58.35 110.14H35.1L33.15 92.0631H24.15L22.5 110.14H0ZM24.3 79.3904H33.15L28.8 21.4317L24.3 79.3904Z" fill="white"/>
<path d="M415.16 230.564V120.423H448.46C454.36 120.423 458.76 122.163 461.66 125.641C464.56 128.996 466.01 133.469 466.01 139.06V151.36C466.01 154.59 465.61 157.572 464.81 160.305C464.11 162.914 463.01 165.088 461.51 166.828C460.41 168.194 459.06 169.25 457.46 169.996C455.86 170.741 454.26 171.238 452.66 171.487V171.673C454.16 171.673 455.61 171.922 457.01 172.418C458.51 172.915 460.06 173.909 461.66 175.4C463.36 177.015 464.71 179.252 465.71 182.109C466.81 184.967 467.36 188.508 467.36 192.732V207.455C467.36 213.418 466.51 218.077 464.81 221.432C463.21 224.786 460.81 227.147 457.61 228.514C454.51 229.88 450.76 230.564 446.36 230.564H415.16ZM436.01 217.332H441.56C442.56 217.332 443.41 217.021 444.11 216.4C444.81 215.779 445.36 214.661 445.76 213.045C446.16 211.306 446.36 208.946 446.36 205.964V193.477C446.36 189.005 445.91 186.085 445.01 184.718C444.11 183.352 442.81 182.668 441.11 182.668H436.01V217.332ZM436.01 166.455H440.81C442.31 166.455 443.56 165.647 444.56 164.032C445.56 162.293 446.06 159.062 446.06 154.341V143.905C446.06 140.302 445.66 137.817 444.86 136.451C444.06 134.96 442.96 134.214 441.56 134.214H436.01V166.455Z" fill="#FF267E"/>
<path d="M387.398 230.564V120.423H408.248V230.564H387.398Z" fill="#FF267E"/>
<path d="M356.377 231.682C350.477 231.682 345.577 230.688 341.677 228.7C337.777 226.588 334.827 223.544 332.827 219.568C330.927 215.468 329.977 210.561 329.977 204.846V191.427H350.827V197.018C350.827 202.485 351.177 206.585 351.877 209.318C352.577 212.052 354.027 213.418 356.227 213.418C358.127 213.418 359.427 212.3 360.127 210.064C360.927 207.827 361.327 204.97 361.327 201.491V190.682C361.327 187.203 360.327 184.843 358.327 183.6C356.427 182.358 353.477 181.675 349.477 181.55H343.027V167.759H349.627C351.427 167.759 353.027 167.573 354.427 167.2C355.927 166.703 357.127 166.02 358.027 165.15C359.327 164.281 360.177 163.225 360.577 161.982C361.077 160.74 361.327 159.373 361.327 157.882V149.869C361.327 146.638 360.927 143.905 360.127 141.669C359.427 139.432 358.127 138.314 356.227 138.314C353.927 138.314 352.477 139.681 351.877 142.414C351.277 145.147 350.977 149.123 350.977 154.341V157.882H330.127V146.514C330.127 137.817 332.277 131.232 336.577 126.76C340.977 122.287 347.577 120.051 356.377 120.051C365.877 120.051 372.677 122.039 376.777 126.014C380.877 129.866 382.927 135.954 382.927 144.278V153.969C382.927 160.181 381.627 165.213 379.027 169.064C376.527 172.915 372.727 175.028 367.627 175.4C372.527 175.649 376.277 177.637 378.877 181.364C381.577 184.967 382.927 189.937 382.927 196.273V204.846C382.927 211.306 382.027 216.524 380.227 220.5C378.427 224.352 375.577 227.209 371.677 229.073C367.877 230.812 362.777 231.682 356.377 231.682Z" fill="#FF267E"/>
<path d="M300.815 232.8C295.715 232.8 291.215 232.054 287.315 230.564C283.515 228.948 280.515 225.78 278.315 221.059C276.215 216.338 275.165 209.256 275.165 199.814V143.719C275.165 137.382 276.215 132.413 278.315 128.81C280.515 125.207 283.515 122.66 287.315 121.169C291.215 119.554 295.715 118.746 300.815 118.746C305.915 118.746 310.415 119.554 314.315 121.169C318.215 122.66 321.265 125.207 323.465 128.81C325.765 132.413 326.915 137.382 326.915 143.719V199.627C326.915 209.194 325.765 216.338 323.465 221.059C321.265 225.78 318.215 228.948 314.315 230.564C310.415 232.054 305.915 232.8 300.815 232.8ZM300.815 217.705C301.815 217.705 302.715 217.456 303.515 216.959C304.415 216.462 305.065 215.655 305.465 214.536C305.865 213.294 306.065 211.679 306.065 209.691V142.6C306.065 140.737 305.865 139.184 305.465 137.941C305.065 136.699 304.415 135.829 303.515 135.332C302.715 134.835 301.815 134.587 300.815 134.587C299.815 134.587 298.915 134.835 298.115 135.332C297.315 135.829 296.665 136.699 296.165 137.941C295.765 139.184 295.565 140.737 295.565 142.6V209.691C295.565 211.679 295.765 213.294 296.165 214.536C296.665 215.655 297.315 216.462 298.115 216.959C298.915 217.456 299.815 217.705 300.815 217.705Z" fill="#FF267E"/>
<path d="M217.834 230.564V120.423H238.684V164.219H248.434V120.423H269.134V230.564H248.434V183.414H238.684V230.564H217.834Z" fill="#FF267E"/>
<path d="M172.641 230.564V120.423H214.641V138.501H194.391V230.564H172.641Z" fill="#FF267E"/>
<path d="M140.479 232.8C135.379 232.8 130.879 232.054 126.979 230.564C123.179 228.948 120.179 225.78 117.979 221.059C115.879 216.338 114.829 209.256 114.829 199.814V143.719C114.829 137.382 115.879 132.413 117.979 128.81C120.179 125.207 123.179 122.66 126.979 121.169C130.879 119.554 135.379 118.746 140.479 118.746C145.579 118.746 150.079 119.554 153.979 121.169C157.879 122.66 160.929 125.207 163.129 128.81C165.429 132.413 166.579 137.382 166.579 143.719V199.627C166.579 209.194 165.429 216.338 163.129 221.059C160.929 225.78 157.879 228.948 153.979 230.564C150.079 232.054 145.579 232.8 140.479 232.8ZM140.479 217.705C141.479 217.705 142.379 217.456 143.179 216.959C144.079 216.462 144.729 215.655 145.129 214.536C145.529 213.294 145.729 211.679 145.729 209.691V142.6C145.729 140.737 145.529 139.184 145.129 137.941C144.729 136.699 144.079 135.829 143.179 135.332C142.379 134.835 141.479 134.587 140.479 134.587C139.479 134.587 138.579 134.835 137.779 135.332C136.979 135.829 136.329 136.699 135.829 137.941C135.429 139.184 135.229 140.737 135.229 142.6V209.691C135.229 211.679 135.429 213.294 135.829 214.536C136.329 215.655 136.979 216.462 137.779 216.959C138.579 217.456 139.479 217.705 140.479 217.705Z" fill="#FF267E"/>
<path d="M59.2559 230.564V120.423H92.5559C98.7559 120.423 103.356 122.163 106.356 125.641C109.356 128.996 110.856 133.469 110.856 139.06V157.882C110.856 163.1 110.356 168.008 109.356 172.605C108.356 177.078 106.556 180.681 103.956 183.414C101.456 186.147 97.8059 187.514 93.0059 187.514H81.0059V230.564H59.2559ZM81.0059 173.537H85.2059C86.9059 173.537 88.1559 172.17 88.9559 169.437C89.7559 166.703 90.1559 161.92 90.1559 155.087V150.614C90.1559 144.65 89.8559 140.426 89.2559 137.941C88.6559 135.457 87.5559 134.214 85.9559 134.214H81.0059V173.537Z" fill="#FF267E"/>
<path d="M0 230.564V120.423H52.35V230.564H30.6V138.501H21.75V230.564H0Z" fill="#FF267E"/>
</svg>
